<svg xmlns="http://www.w3.org/2000/svg" viewBox="0 0 512 512">
  <rect width="512" height="512" fill="#0B121F"/>
  <defs>
    <clipPath id="doc">
      <path d="M136 66h158l88 88v278c0 24-20 44-44 44H136c-24 0-44-20-44-44V110c0-24 20-44 44-44z"/>
    </clipPath>
  </defs>
  <path d="M136 66h158l88 88v278c0 24-20 44-44 44H136c-24 0-44-20-44-44V110c0-24 20-44 44-44z" fill="#293B49" stroke="#fff" stroke-width="12" stroke-linejoin="round"/>
  <g clip-path="url(#doc)">
    <path d="M72 108c54-35 100 18 154 9 69-11 84-46 162-25v100c-55 30-97-8-153 8-72 21-101 13-163-13z" fill="#87ABBD"/>
    <path d="M72 360c54-42 103 20 161 14 68-7 78-55 157-36v138H72z" fill="#87ABBD"/>
    <path d="M294 66v88h88z" fill="#293B49" stroke="#fff" stroke-width="12" stroke-linejoin="round"/>
  </g>
  <rect x="46" y="202" width="420" height="132" rx="26" fill="#293B49" stroke="#fff" stroke-width="8"/>
  <text x="256" y="300" fill="#fff" font-family="Arial,Helvetica,sans-serif" font-size="108" font-weight="700" text-anchor="middle">KML</text>
</svg>
